<svg width="189" height="81" viewBox="0 0 189 81" fill="none" xmlns="http://www.w3.org/2000/svg">
<path d="M121.366 28.0054C120.809 26.8743 120.028 25.8681 119.07 25.0478C118.158 24.2695 117.178 23.5753 116.141 22.9737L115.755 22.7467C114.47 22.016 113.139 21.3703 111.77 20.8138L109.677 19.9609L108.909 19.6602L107.626 19.1632C107.423 19.4823 107.202 19.7768 106.975 20.0836C106.513 20.678 105.99 21.223 105.416 21.7097C105.047 22.0293 104.653 22.3186 104.237 22.5749C104.808 22.802 105.385 23.029 105.962 23.2437C107.35 23.7715 108.694 24.3217 109.996 24.8944C111.202 25.4195 112.373 26.0221 113.502 26.6984C114.49 27.2843 115.372 28.0332 116.111 28.9136C116.784 29.7 117.243 30.6469 117.443 31.6626C117.747 33.1181 117.608 34.6311 117.044 36.007C116.582 37.0779 115.883 38.0304 115 38.7928C114.809 38.9646 114.619 39.1242 114.416 39.2776C114.123 39.502 113.815 39.707 113.495 39.8912L113.096 40.1182C112.136 40.6485 111.101 41.0312 110.027 41.2534C109.923 41.2798 109.819 41.3003 109.713 41.3148H109.554C108.578 41.4771 107.59 41.547 106.601 41.5234C103.467 41.4826 100.475 40.2082 98.2757 37.9767C98.0608 37.7681 97.8398 37.5472 97.631 37.3201C95.9192 35.443 94.4618 33.349 93.2966 31.0919C92.7972 30.1592 92.3143 29.1651 91.8477 28.1097L92.1546 37.9276C94.0499 39.3907 96.2125 40.4704 98.5212 41.1061C101.148 41.9163 103.876 42.3543 106.625 42.407C108.167 42.4403 109.709 42.3273 111.23 42.0695C112.573 42.8396 114.096 43.2438 115.644 43.2416H118.487V42.8243L117.259 42.6157C116.831 42.562 116.424 42.3964 116.08 42.1357C115.737 41.875 115.468 41.5284 115.3 41.1307C115.275 41.0677 115.247 41.0062 115.214 40.9466C115.274 40.9252 115.332 40.8985 115.386 40.8669C116.25 40.4834 117.072 40.0147 117.842 39.4678C117.959 39.388 118.069 39.3021 118.18 39.2162C118.444 39.0137 118.696 38.8112 118.935 38.6026C119.956 37.7772 120.779 36.7336 121.343 35.5485C121.907 34.3634 122.198 33.067 122.195 31.7546C122.212 30.4576 121.929 29.1743 121.366 28.0054Z" fill="#FB6563"/>
<path d="M105.121 24.4772C104.41 24.013 103.655 23.6185 102.868 23.2991C102.121 22.9989 101.354 22.7528 100.572 22.5627C101.387 22.4858 102.191 22.3233 102.972 22.078C103.655 21.8657 104.314 21.5819 104.937 21.2312C105.543 20.898 106.115 20.5054 106.644 20.0592C106.979 19.7783 107.299 19.4793 107.601 19.1633C107.761 18.9976 107.921 18.8197 108.074 18.6417C108.409 18.2526 108.718 17.8427 109.001 17.4145C109.173 17.1506 109.333 16.8868 109.474 16.6168C110.48 14.7585 110.924 12.6478 110.751 10.5419C110.641 8.61167 110.004 6.74843 108.909 5.1544C107.909 3.6673 106.574 2.43566 105.011 1.55861C104.888 1.47884 104.759 1.41132 104.63 1.34382C104.501 1.27633 104.212 1.13519 104.016 1.03702C104.741 0.918664 105.473 0.851029 106.208 0.834548H106.902C110.021 0.871655 113.004 2.1141 115.227 4.30146C117.613 6.57185 119.745 9.78924 121.624 13.9537L121.378 6.21595L121.317 4.3751C119.49 2.9991 117.423 1.97531 115.221 1.35611L114.969 1.27633C112.827 0.618247 110.617 0.206507 108.381 0.0490999L107.577 0.00614217H106.877C105.852 -0.0127631 104.827 0.0261628 103.807 0.122731C103.234 0.168953 102.664 0.248871 102.1 0.362051H102.039C101.254 0.137929 100.443 0.0162253 99.6263 0H86.7334L85.217 4.06214L82.092 12.4196L71.6549 40.3515C71.5421 40.7337 71.3141 41.0719 71.0022 41.32C70.6902 41.5682 70.3093 41.7142 69.9113 41.7383L66.8416 41.996V42.4685H80.8457V41.996L78.4206 41.7628C78.2506 41.7515 78.0859 41.6993 77.9405 41.6106C77.7951 41.5219 77.6734 41.3994 77.5856 41.2535C77.5348 41.1727 77.4936 41.0862 77.4628 40.9958C77.3804 40.7636 77.3804 40.5101 77.4628 40.2779L77.6347 39.8115L84.0566 22.6302H95.3655C96.3735 22.7545 97.3616 23.0061 98.3063 23.3788C98.7474 23.5579 99.1708 23.7777 99.571 24.0354C100.478 24.6319 101.303 25.3435 102.027 26.1524C102.598 26.7793 103.108 27.4594 103.549 28.1834C104.517 29.9024 105.295 31.7212 105.87 33.6078C106.103 34.3012 106.601 35.7003 107.209 37.3939C107.384 37.8835 107.604 38.3559 107.865 38.8052C108.049 39.1351 108.254 39.4528 108.479 39.7563C108.607 39.9435 108.778 40.0971 108.978 40.2039C109.178 40.3108 109.401 40.3677 109.627 40.3699C110.728 40.3718 111.823 40.2084 112.875 39.8851L113.311 39.744C113.664 39.6241 114.009 39.4806 114.343 39.3145C110.913 31.9511 108.385 27.4757 106.76 25.8885C106.262 25.365 105.713 24.8923 105.121 24.4772ZM100.21 2.24586L100.523 2.09246L100.725 1.99426C101.764 1.53881 102.858 1.21915 103.979 1.04316C103.115 1.4005 102.292 1.84892 101.523 2.38084C101.351 2.49129 101.18 2.61403 101.014 2.74289C101.466 3.0577 101.897 3.40207 102.303 3.77376C102.45 3.90876 102.592 4.04374 102.721 4.17873C104.557 5.96737 105.612 8.40896 105.655 10.9715C105.684 11.836 105.612 12.7009 105.44 13.5487C105.229 14.5699 104.854 15.55 104.329 16.4511C104.182 16.7088 104.016 16.9665 103.838 17.2181L103.623 17.5127L103.384 17.4083C103.113 17.2917 102.856 17.169 102.598 17.0463C101.633 16.6036 100.692 16.1099 99.7798 15.5675C98.7672 14.97 97.8606 14.209 97.0968 13.3155C96.4005 12.5173 95.9263 11.5503 95.7216 10.5113C95.361 8.77634 95.6725 6.96928 96.5934 5.45507C97.2388 4.40978 98.1066 3.5194 99.1351 2.84719C99.4791 2.626 99.8358 2.42521 100.203 2.24586H100.21ZM95.1997 21.7527H84.3943L87.3719 13.7757L91.1293 3.73695L91.4792 2.78585L92.2159 0.822264H94.7577C95.9741 0.814302 97.1834 1.00711 98.337 1.39292L97.5573 1.73655C96.8559 2.0684 96.1825 2.45624 95.5435 2.89629C95.255 3.09879 94.9787 3.30128 94.7209 3.50991C92.3347 5.41622 91.1784 7.72545 91.2521 10.4376C91.2895 11.7735 91.614 13.0856 92.2037 14.285C92.7655 15.4359 93.5526 16.4624 94.5182 17.304C95.5431 18.193 96.6536 18.9782 97.8336 19.648C98.4475 20.0224 99.1474 20.3721 99.8289 20.7096C98.3856 21.4118 96.7987 21.769 95.1936 21.7527H95.1997Z" fill="#FB6563"/>
<path d="M0.923191 72.6132V71.8305C1.53865 71.8038 1.99356 71.7502 2.28791 71.67C2.59564 71.5763 2.79633 71.4157 2.88999 71.1883C2.99703 70.9475 3.05054 70.5862 3.05054 70.1045V60.9128C3.05054 60.4311 2.99703 60.0766 2.88999 59.8491C2.79633 59.6083 2.59564 59.441 2.28791 59.3474C1.99356 59.2537 1.53865 59.2002 0.923191 59.1868V58.4041C1.16402 58.4175 1.56541 58.4309 2.12735 58.4442C2.70268 58.4442 3.39841 58.4442 4.21457 58.4442C4.68285 58.4442 5.09762 58.4442 5.45887 58.4442C5.82012 58.4442 6.14123 58.4442 6.4222 58.4442C6.71655 58.4309 6.97745 58.4242 7.2049 58.4242C7.44574 58.4108 7.65312 58.4041 7.82705 58.4041C9.68682 58.4041 11.0917 58.7051 12.0416 59.3072C12.9916 59.9093 13.4665 60.7924 13.4665 61.9564C13.4665 62.7592 13.2257 63.4482 12.744 64.0235C12.2624 64.5989 11.5666 65.0404 10.6568 65.3481C9.7604 65.6558 8.66328 65.8097 7.36546 65.8097H4.73637V65.2879H7.38553C8.42914 65.2879 9.20515 65.0337 9.71357 64.5253C10.222 64.0035 10.4762 63.2141 10.4762 62.1571C10.4762 61.1536 10.2354 60.411 9.75371 59.9294C9.28543 59.4343 8.55624 59.1868 7.56615 59.1868H6.10109V70.1045C6.10109 70.5728 6.14792 70.9274 6.24157 71.1682C6.34861 71.4091 6.55599 71.5763 6.86372 71.67C7.17145 71.7502 7.62636 71.8038 8.22844 71.8305V72.6132C7.55946 72.5731 6.34861 72.553 4.59589 72.553C2.8164 72.553 1.59217 72.5731 0.923191 72.6132ZM13.0652 72.8942C12.2089 72.8942 11.56 72.7002 11.1184 72.3122C10.6903 71.9108 10.3826 71.2418 10.1952 70.3052L9.77378 68.1779C9.65337 67.6293 9.4995 67.2079 9.31219 66.9135C9.13825 66.6058 8.89742 66.385 8.58969 66.2512C8.29534 66.1174 7.89395 66.0505 7.38553 66.0505H4.87686V65.5287H7.2049C8.50272 65.5287 9.53964 65.6291 10.3157 65.8298C11.0917 66.0305 11.6871 66.3716 12.1018 66.8533C12.5166 67.335 12.831 68.0106 13.0451 68.8803L13.3461 70.1447C13.4665 70.6531 13.6137 71.0144 13.7877 71.2284C13.9616 71.4425 14.1957 71.5429 14.4901 71.5295C14.6506 71.5295 14.7911 71.5027 14.9115 71.4492C15.0453 71.3823 15.1791 71.282 15.3129 71.1482L15.6942 71.7302C15.3464 72.1316 14.9651 72.4259 14.5503 72.6132C14.1355 72.8005 13.6405 72.8942 13.0652 72.8942ZM16.01 72.6132V71.8305C16.7191 71.8171 17.2142 71.7101 17.4952 71.5094C17.7761 71.3087 17.9166 70.9341 17.9166 70.3855V64.7862C17.9166 64.1841 17.7761 63.7492 17.4952 63.4817C17.2276 63.2007 16.7325 63.0468 16.01 63.0201V62.2374C16.2776 62.2507 16.5519 62.2641 16.8329 62.2775C17.1138 62.2909 17.3948 62.2976 17.6758 62.2976C18.2511 62.2976 18.7863 62.2775 19.2813 62.2374C19.7898 62.1838 20.258 62.1103 20.6862 62.0166V70.3855C20.6862 70.9341 20.8267 71.3087 21.1076 71.5094C21.3886 71.7101 21.8837 71.8171 22.5928 71.8305V72.6132C22.3921 72.5998 22.1111 72.5932 21.7499 72.5932C21.402 72.5798 21.014 72.5664 20.5858 72.553C20.1711 72.5396 19.7563 72.5329 19.3415 72.5329C18.7127 72.5329 18.0772 72.5463 17.435 72.5731C16.8061 72.5865 16.3311 72.5998 16.01 72.6132ZM19.2211 60.1702C18.7796 60.1702 18.3849 60.0297 18.037 59.7488C17.7025 59.4678 17.5353 59.0865 17.5353 58.6048C17.5353 58.1098 17.7025 57.7217 18.037 57.4408C18.3849 57.1598 18.7796 57.0193 19.2211 57.0193C19.6627 57.0193 20.0507 57.1598 20.3851 57.4408C20.733 57.7217 20.907 58.1031 20.907 58.5847C20.907 59.0798 20.733 59.4678 20.3851 59.7488C20.0507 60.0297 19.6627 60.1702 19.2211 60.1702ZM28.7892 73.6368L24.5144 64.3246C24.3137 63.883 24.0662 63.5619 23.7719 63.3612C23.4775 63.1605 23.0962 63.0468 22.6279 63.0201V62.2374C23.1096 62.2641 23.5912 62.2842 24.0729 62.2976C24.5679 62.3109 25.1232 62.3176 25.7387 62.3176C26.3541 62.3176 26.8893 62.3109 27.3442 62.2976C27.8125 62.2842 28.2607 62.2641 28.6889 62.2374V63.0201C28.06 63.0468 27.6653 63.1873 27.5048 63.4415C27.3442 63.6824 27.3977 64.1038 27.6653 64.7059L30.1338 70.1246L29.6923 70.3454L31.338 66.0505C31.5788 65.4351 31.6926 64.9133 31.6792 64.4851C31.6792 64.057 31.5588 63.7225 31.3179 63.4817C31.0771 63.2274 30.7159 63.0736 30.2342 63.0201V62.2374C30.5419 62.2507 30.8296 62.2641 31.0972 62.2775C31.3781 62.2909 31.6457 62.2976 31.9 62.2976C32.1542 62.2976 32.4017 62.2976 32.6425 62.2976C32.977 62.2976 33.3316 62.2909 33.7062 62.2775C34.0942 62.2641 34.4287 62.2507 34.7097 62.2374V63.0201C34.1611 63.1405 33.7129 63.3813 33.365 63.7426C33.0171 64.1038 32.696 64.6724 32.4017 65.4485L29.2709 73.6368H28.7892ZM25.9193 77.5302C25.2102 77.5302 24.6415 77.3563 24.2134 77.0084C23.7852 76.6605 23.5712 76.1989 23.5712 75.6236C23.5712 75.1553 23.7183 74.774 24.0127 74.4797C24.307 74.1987 24.6884 74.0582 25.1566 74.0582C25.5045 74.0582 25.7788 74.1385 25.9795 74.299C26.1802 74.473 26.2805 74.7004 26.2805 74.9814C26.2805 75.1687 26.2471 75.3427 26.1802 75.5032C26.1133 75.6638 26.0397 75.8109 25.9594 75.9447C25.8925 76.0919 25.8591 76.2391 25.8591 76.3863C25.8591 76.6137 25.9996 76.7274 26.2805 76.7274C26.6016 76.7274 26.8826 76.6204 27.1234 76.4063C27.3777 76.1923 27.585 75.8711 27.7456 75.443L29.0501 72.0914L29.7325 72.3724L28.5283 75.5233C28.3544 75.9648 28.147 76.3327 27.9061 76.6271C27.6787 76.9348 27.4044 77.1623 27.0833 77.3095C26.7622 77.4566 26.3742 77.5302 25.9193 77.5302ZM38.4752 72.8942C37.5921 72.8942 36.8897 72.6667 36.3679 72.2118C35.8461 71.7435 35.5852 71.1147 35.5852 70.3253C35.5852 69.7099 35.7257 69.2148 36.0066 68.8402C36.301 68.4522 36.6756 68.1378 37.1305 67.8969C37.5854 67.6561 38.0671 67.4621 38.5755 67.3149C39.0973 67.1544 39.5857 67.0072 40.0406 66.8734C40.4955 66.7262 40.8634 66.559 41.1444 66.3716C41.4388 66.171 41.5859 65.9101 41.5859 65.5889V64.6256C41.5859 64.0235 41.4254 63.5619 41.1043 63.2408C40.7832 62.9197 40.3082 62.7592 39.6793 62.7592C39.2244 62.7592 38.8498 62.8261 38.5555 62.9599C38.2611 63.0936 38.1139 63.2676 38.1139 63.4817C38.1139 63.6422 38.1674 63.8028 38.2745 63.9633C38.3815 64.1239 38.4819 64.2978 38.5755 64.4851C38.6826 64.6591 38.7361 64.8531 38.7361 65.0671C38.7361 65.3615 38.6157 65.6023 38.3748 65.7896C38.1474 65.9636 37.8396 66.0505 37.4516 66.0505C37.0101 66.0505 36.6556 65.9234 36.388 65.6692C36.1338 65.4016 36.0066 65.0538 36.0066 64.6256C36.0066 64.0904 36.194 63.6288 36.5686 63.2408C36.9566 62.8394 37.4918 62.525 38.1741 62.2976C38.8565 62.0701 39.6392 61.9564 40.5223 61.9564C41.4321 61.9564 42.1679 62.0835 42.7299 62.3377C43.2918 62.5785 43.6999 62.9799 43.9541 63.5419C44.2217 64.0904 44.3555 64.8263 44.3555 65.7495V70.9274C44.3555 71.2351 44.4023 71.4559 44.496 71.5897C44.5896 71.7235 44.7435 71.7904 44.9576 71.7904C45.1315 71.7904 45.3121 71.7502 45.4995 71.67C45.6868 71.5897 45.8741 71.4826 46.0614 71.3488L46.3825 71.9911C46.0346 72.2854 45.6399 72.5062 45.1984 72.6534C44.7569 72.8139 44.2618 72.8942 43.7133 72.8942C42.3218 72.8942 41.6194 72.3456 41.606 71.2485C41.218 71.7971 40.7631 72.2118 40.2413 72.4928C39.7195 72.7604 39.1308 72.8942 38.4752 72.8942ZM39.7596 71.4091C40.1209 71.4091 40.4554 71.3288 40.7631 71.1682C41.0708 70.9943 41.3451 70.7468 41.5859 70.4257V66.6928C41.4655 66.8934 41.2782 67.0741 41.024 67.2346C40.7832 67.3818 40.5089 67.529 40.2011 67.6762C39.8934 67.8233 39.5991 67.9906 39.3181 68.1779C39.0371 68.3652 38.803 68.5993 38.6157 68.8803C38.4283 69.1479 38.3347 69.4891 38.3347 69.9039C38.3347 70.3721 38.4618 70.7401 38.716 71.0077C38.9702 71.2753 39.3181 71.4091 39.7596 71.4091ZM51.6222 72.6132V71.8305C52.0771 71.7636 52.4651 71.6365 52.7862 71.4492C53.1073 71.2485 53.4017 70.9608 53.6693 70.5862C53.9368 70.1982 54.2111 69.6898 54.4921 69.0609L59.1482 58.2636H59.8908L65.2894 70.0644C65.5838 70.6933 65.9049 71.1415 66.2528 71.4091C66.614 71.6633 67.109 71.8038 67.7379 71.8305V72.6132C67.3231 72.5865 66.8013 72.5731 66.1725 72.5731C65.5436 72.5597 64.8144 72.553 63.9849 72.553C63.0751 72.553 62.2924 72.5597 61.6368 72.5731C60.9812 72.5731 60.4795 72.5865 60.1316 72.6132V71.8305C60.8006 71.8171 61.2956 71.7502 61.6167 71.6298C61.9512 71.5094 62.1385 71.3221 62.1787 71.0679C62.2188 70.8137 62.1385 70.4591 61.9378 70.0042L58.1447 61.6152L58.6063 61.3744L55.6561 68.2782C55.3216 69.0676 55.1544 69.7232 55.1544 70.245C55.1544 70.7535 55.335 71.1415 55.6963 71.4091C56.0575 71.6633 56.6061 71.8038 57.342 71.8305V72.6132C56.8737 72.5998 56.4522 72.5932 56.0776 72.5932C55.703 72.5798 55.3484 72.5731 55.0139 72.5731C54.6928 72.5597 54.3583 72.553 54.0104 72.553C53.5823 72.553 53.1742 72.5597 52.7862 72.5731C52.3982 72.5731 52.0102 72.5865 51.6222 72.6132ZM55.2949 68.0575L55.6361 67.2948H61.8576L62.1987 68.0575H55.2949ZM68.5769 72.6132V71.8305C69.2994 71.8171 69.7944 71.7101 70.062 71.5094C70.343 71.2953 70.4835 70.9207 70.4835 70.3855V64.7862C70.4835 64.1573 70.3363 63.7158 70.0419 63.4616C69.761 63.194 69.2726 63.0468 68.5769 63.0201V62.2374C68.9515 62.2507 69.2659 62.2641 69.5201 62.2775C69.7877 62.2909 70.0754 62.2976 70.3831 62.2976C71.4802 62.2976 72.4369 62.2039 73.253 62.0166V70.225C73.253 70.8137 73.4337 71.2284 73.7949 71.4693C74.1695 71.6967 74.8185 71.8171 75.7416 71.8305V72.6132C75.4874 72.5998 75.1463 72.5932 74.7181 72.5932C74.3033 72.5798 73.8484 72.5664 73.3534 72.553C72.8717 72.5396 72.3968 72.5329 71.9285 72.5329C71.2461 72.5329 70.5905 72.5463 69.9617 72.5731C69.3462 72.5865 68.8846 72.5998 68.5769 72.6132ZM76.6247 65.9703C76.2902 65.9703 76.0226 65.8766 75.8219 65.6893C75.6212 65.502 75.5209 65.2611 75.5209 64.9668C75.5209 64.7661 75.5543 64.5922 75.6212 64.445C75.6881 64.2844 75.755 64.1373 75.8219 64.0035C75.8888 63.8563 75.9223 63.7158 75.9223 63.582C75.9223 63.2877 75.735 63.1405 75.3603 63.1405C75.0794 63.1405 74.7917 63.2074 74.4973 63.3412C74.2164 63.475 73.9555 63.6623 73.7146 63.9031C73.4872 64.1306 73.3133 64.3982 73.1928 64.7059L73.1527 63.863C73.4738 63.2609 73.9086 62.7926 74.4572 62.4581C75.0058 62.1236 75.5811 61.9564 76.1832 61.9564C76.812 61.9564 77.3071 62.1437 77.6683 62.5183C78.0429 62.8796 78.2302 63.3813 78.2302 64.0235C78.2302 64.6122 78.0831 65.0872 77.7887 65.4485C77.4944 65.7963 77.1064 65.9703 76.6247 65.9703ZM84.1269 72.8942C83.0833 72.8942 82.3006 72.6065 81.7788 72.0312C81.257 71.4425 80.9961 70.5728 80.9961 69.4222V63.0201H78.8085V62.2374H80.9961V59.3273C81.5179 59.3273 82.0062 59.2938 82.4611 59.227C82.916 59.1601 83.3509 59.0664 83.7656 58.946V62.2374H86.776V63.0201H83.7656V70.0845C83.7656 70.5929 83.866 70.9742 84.0667 71.2284C84.2807 71.4693 84.5952 71.5897 85.0099 71.5897C85.3979 71.5897 85.7257 71.4693 85.9933 71.2284C86.2609 70.9742 86.4817 70.6063 86.6556 70.1246L87.2778 70.3855C86.9968 71.2552 86.6088 71.8907 86.1137 72.2921C85.6187 72.6935 84.9564 72.8942 84.1269 72.8942ZM88.1163 72.6132V71.8305C88.8254 71.8171 89.3205 71.7101 89.6014 71.5094C89.8824 71.3087 90.0229 70.9341 90.0229 70.3855V64.7862C90.0229 64.1841 89.8824 63.7492 89.6014 63.4817C89.3338 63.2007 88.8388 63.0468 88.1163 63.0201V62.2374C88.3839 62.2507 88.6582 62.2641 88.9391 62.2775C89.2201 62.2909 89.5011 62.2976 89.7821 62.2976C90.3574 62.2976 90.8926 62.2775 91.3876 62.2374C91.896 62.1838 92.3643 62.1103 92.7925 62.0166V70.3855C92.7925 70.9341 92.9329 71.3087 93.2139 71.5094C93.4949 71.7101 93.9899 71.8171 94.699 71.8305V72.6132C94.4984 72.5998 94.2174 72.5932 93.8561 72.5932C93.5083 72.5798 93.1203 72.5664 92.6921 72.553C92.2773 72.5396 91.8626 72.5329 91.4478 72.5329C90.819 72.5329 90.1834 72.5463 89.5412 72.5731C88.9124 72.5865 88.4374 72.5998 88.1163 72.6132ZM91.3274 60.1702C90.8859 60.1702 90.4912 60.0297 90.1433 59.7488C89.8088 59.4678 89.6416 59.0865 89.6416 58.6048C89.6416 58.1098 89.8088 57.7217 90.1433 57.4408C90.4912 57.1598 90.8859 57.0193 91.3274 57.0193C91.7689 57.0193 92.1569 57.1598 92.4914 57.4408C92.8393 57.7217 93.0132 58.1031 93.0132 58.5847C93.0132 59.0798 92.8393 59.4678 92.4914 59.7488C92.1569 60.0297 91.7689 60.1702 91.3274 60.1702ZM100.885 72.8942C100.31 72.8942 99.8281 72.834 99.4401 72.7136C99.0521 72.5932 98.731 72.4727 98.4768 72.3523C98.2226 72.2319 97.9951 72.1717 97.7944 72.1717C97.4733 72.1717 97.2392 72.3791 97.092 72.7938H96.3093C96.3494 72.4326 96.3762 72.0647 96.3896 71.69C96.403 71.302 96.4096 70.8739 96.4096 70.4056C96.4096 69.9239 96.4096 69.3754 96.4096 68.7599H97.1723C97.3997 69.857 97.8011 70.6866 98.3764 71.2485C98.9651 71.8104 99.7144 72.0914 100.624 72.0914C101.226 72.0914 101.695 71.9643 102.029 71.7101C102.364 71.4425 102.531 71.0746 102.531 70.6063C102.531 70.1514 102.343 69.7767 101.969 69.4824C101.608 69.188 100.959 68.9004 100.022 68.6194C98.818 68.2582 97.9349 67.7899 97.373 67.2146C96.811 66.6259 96.5301 65.9034 96.5301 65.0471C96.5301 64.1105 96.8378 63.3612 97.4533 62.7993C98.0821 62.2374 98.9183 61.9564 99.9619 61.9564C100.497 61.9564 100.952 62.0166 101.327 62.137C101.701 62.244 102.016 62.3645 102.27 62.4983C102.537 62.6187 102.765 62.6789 102.952 62.6789C103.086 62.6789 103.2 62.6321 103.293 62.5384C103.387 62.4314 103.467 62.2775 103.534 62.0768H104.317C104.29 62.3578 104.27 62.6588 104.257 62.9799C104.243 63.2877 104.23 63.6489 104.217 64.0637C104.217 64.4784 104.223 64.9935 104.237 65.609H103.454C103.253 64.6992 102.872 63.9968 102.31 63.5017C101.761 63.0067 101.106 62.7592 100.343 62.7592C99.8081 62.7592 99.3866 62.8796 99.0789 63.1204C98.7845 63.3612 98.6373 63.7091 98.6373 64.164C98.6373 64.6323 98.838 65.0203 99.2394 65.328C99.6408 65.6358 100.337 65.9368 101.327 66.2312C102.491 66.5523 103.334 66.9804 103.855 67.5156C104.391 68.0508 104.658 68.7532 104.658 69.6229C104.658 70.6531 104.324 71.4559 103.655 72.0312C102.986 72.6065 102.063 72.8942 100.885 72.8942ZM111.297 72.8942C110.254 72.8942 109.471 72.6065 108.949 72.0312C108.427 71.4425 108.167 70.5728 108.167 69.4222V63.0201H105.979V62.2374H108.167V59.3273C108.688 59.3273 109.177 59.2938 109.632 59.227C110.087 59.1601 110.521 59.0664 110.936 58.946V62.2374H113.947V63.0201H110.936V70.0845C110.936 70.5929 111.036 70.9742 111.237 71.2284C111.451 71.4693 111.766 71.5897 112.18 71.5897C112.568 71.5897 112.896 71.4693 113.164 71.2284C113.431 70.9742 113.652 70.6063 113.826 70.1246L114.448 70.3855C114.167 71.2552 113.779 71.8907 113.284 72.2921C112.789 72.6935 112.127 72.8942 111.297 72.8942ZM126.43 72.8942C125.641 72.8942 124.972 72.8139 124.423 72.6534C123.888 72.4928 123.446 72.3389 123.099 72.1918C122.764 72.0312 122.49 71.9509 122.276 71.9509C122.115 71.9509 121.981 72.0178 121.874 72.1516C121.781 72.2854 121.707 72.4995 121.654 72.7938H120.851C120.878 72.4594 120.891 72.0647 120.891 71.6098C120.904 71.1548 120.911 70.5795 120.911 69.8838C120.924 69.1747 120.931 68.2849 120.931 67.2146H121.734C121.894 68.7666 122.356 69.9641 123.119 70.807C123.881 71.6365 124.885 72.0513 126.129 72.0513C126.972 72.0513 127.634 71.8506 128.116 71.4492C128.598 71.0478 128.838 70.4926 128.838 69.7834C128.838 69.3285 128.718 68.9205 128.477 68.5592C128.25 68.198 127.875 67.8635 127.353 67.5557C126.832 67.2346 126.142 66.9135 125.286 66.5924C124.296 66.2312 123.487 65.8298 122.858 65.3882C122.242 64.9467 121.787 64.4517 121.493 63.9031C121.199 63.3546 121.052 62.7391 121.052 62.0567C121.052 61.254 121.239 60.5582 121.613 59.9695C121.988 59.3808 122.517 58.9259 123.199 58.6048C123.881 58.2837 124.677 58.1231 125.587 58.1231C126.323 58.1231 126.925 58.2034 127.393 58.364C127.875 58.5111 128.27 58.665 128.578 58.8256C128.899 58.9861 129.166 59.0664 129.38 59.0664C129.554 59.0664 129.688 58.9995 129.782 58.8657C129.889 58.7319 129.969 58.5178 130.023 58.2235H130.825C130.799 58.5312 130.772 58.8724 130.745 59.247C130.732 59.6216 130.718 60.1033 130.705 60.692C130.705 61.2807 130.705 62.0434 130.705 62.9799H129.902C129.755 61.7624 129.32 60.7857 128.598 60.0498C127.875 59.3139 126.979 58.946 125.908 58.946C125.172 58.946 124.597 59.1266 124.182 59.4879C123.768 59.8491 123.56 60.3508 123.56 60.9931C123.56 61.4212 123.674 61.8025 123.901 62.137C124.142 62.4715 124.537 62.7993 125.085 63.1204C125.634 63.4281 126.377 63.7626 127.313 64.1239C128.798 64.6724 129.862 65.3147 130.504 66.0505C131.16 66.773 131.488 67.6628 131.488 68.7198C131.488 70.0042 131.033 71.0211 130.123 71.7703C129.226 72.5196 127.996 72.8942 126.43 72.8942ZM138.079 72.8942C137.035 72.8942 136.253 72.6065 135.731 72.0312C135.209 71.4425 134.948 70.5728 134.948 69.4222V63.0201H132.761V62.2374H134.948V59.3273C135.47 59.3273 135.958 59.2938 136.413 59.227C136.868 59.1601 137.303 59.0664 137.718 58.946V62.2374H140.728V63.0201H137.718V70.0845C137.718 70.5929 137.818 70.9742 138.019 71.2284C138.233 71.4693 138.547 71.5897 138.962 71.5897C139.35 71.5897 139.678 71.4693 139.945 71.2284C140.213 70.9742 140.434 70.6063 140.608 70.1246L141.23 70.3855C140.949 71.2552 140.561 71.8907 140.066 72.2921C139.571 72.6935 138.909 72.8942 138.079 72.8942ZM146.711 72.8942C145.667 72.8942 144.864 72.5798 144.302 71.9509C143.74 71.3087 143.459 70.3922 143.459 69.2014V64.7862C143.459 64.1573 143.312 63.7091 143.018 63.4415C142.737 63.1739 142.249 63.0334 141.553 63.0201V62.2374C141.834 62.2507 142.115 62.2641 142.396 62.2775C142.677 62.2909 142.971 62.2976 143.279 62.2976C143.841 62.2976 144.363 62.2775 144.844 62.2374C145.326 62.1838 145.788 62.1103 146.229 62.0166V69.4824C146.229 70.1781 146.37 70.7066 146.65 71.0679C146.931 71.4291 147.346 71.6098 147.895 71.6098C148.323 71.6098 148.718 71.4893 149.079 71.2485C149.44 70.9943 149.755 70.6264 150.022 70.1447L150.002 71.0277C149.681 71.6164 149.233 72.078 148.657 72.4125C148.095 72.7336 147.447 72.8942 146.711 72.8942ZM149.922 72.834V64.7661C149.922 64.1373 149.801 63.6957 149.561 63.4415C149.32 63.1739 148.905 63.0334 148.316 63.0201V62.2374C148.57 62.2507 148.825 62.2641 149.079 62.2775C149.333 62.2909 149.594 62.2976 149.862 62.2976C150.41 62.2976 150.919 62.2775 151.387 62.2374C151.855 62.1838 152.29 62.1103 152.691 62.0166V70.0644C152.691 70.6933 152.832 71.1415 153.113 71.4091C153.407 71.6766 153.902 71.8171 154.598 71.8305V72.6132C154.317 72.5865 154.036 72.5731 153.755 72.5731C153.474 72.5597 153.186 72.553 152.892 72.553C152.33 72.553 151.802 72.5731 151.307 72.6132C150.812 72.6667 150.35 72.7403 149.922 72.834ZM163.303 72.834V59.6685C163.303 59.0396 163.163 58.5981 162.882 58.3439C162.601 58.0763 162.112 57.9291 161.417 57.9024V57.1197C161.711 57.133 161.992 57.1464 162.26 57.1598C162.541 57.1732 162.835 57.1799 163.143 57.1799C163.691 57.1799 164.213 57.1598 164.708 57.1197C165.203 57.0661 165.665 56.9926 166.093 56.8989V70.0644C166.093 70.6799 166.233 71.1281 166.514 71.4091C166.795 71.6766 167.284 71.8171 167.979 71.8305V72.6132C167.698 72.5865 167.417 72.5731 167.136 72.5731C166.855 72.5597 166.561 72.553 166.253 72.553C165.705 72.553 165.183 72.5731 164.688 72.6132C164.193 72.6667 163.731 72.7403 163.303 72.834ZM160.313 72.8942C159.443 72.8942 158.694 72.6801 158.065 72.252C157.436 71.8104 156.948 71.1883 156.6 70.3855C156.252 69.5827 156.078 68.6261 156.078 67.5156C156.078 66.3516 156.266 65.3548 156.64 64.5253C157.028 63.6957 157.577 63.0602 158.286 62.6187C158.995 62.1771 159.838 61.9564 160.815 61.9564C161.51 61.9564 162.106 62.0835 162.601 62.3377C163.096 62.5919 163.444 62.913 163.644 63.301L163.524 64.0035C163.363 63.6957 163.116 63.4482 162.781 63.2609C162.447 63.0602 162.052 62.9599 161.597 62.9599C160.754 62.9599 160.112 63.3345 159.671 64.0837C159.229 64.833 159.008 65.9435 159.008 67.4153C159.008 68.8067 159.202 69.8704 159.59 70.6063C159.992 71.3288 160.574 71.69 161.336 71.69C161.818 71.69 162.24 71.5362 162.601 71.2284C162.975 70.9207 163.256 70.4859 163.444 69.9239L163.544 70.6464C163.317 71.3555 162.922 71.9108 162.36 72.3122C161.811 72.7002 161.129 72.8942 160.313 72.8942ZM169.093 72.6132V71.8305C169.802 71.8171 170.297 71.7101 170.578 71.5094C170.859 71.3087 171 70.9341 171 70.3855V64.7862C171 64.1841 170.859 63.7492 170.578 63.4817C170.311 63.2007 169.816 63.0468 169.093 63.0201V62.2374C169.361 62.2507 169.635 62.2641 169.916 62.2775C170.197 62.2909 170.478 62.2976 170.759 62.2976C171.334 62.2976 171.869 62.2775 172.364 62.2374C172.873 62.1838 173.341 62.1103 173.769 62.0166V70.3855C173.769 70.9341 173.91 71.3087 174.191 71.5094C174.472 71.7101 174.967 71.8171 175.676 71.8305V72.6132C175.475 72.5998 175.194 72.5932 174.833 72.5932C174.485 72.5798 174.097 72.5664 173.669 72.553C173.254 72.5396 172.839 72.5329 172.425 72.5329C171.796 72.5329 171.16 72.5463 170.518 72.5731C169.889 72.5865 169.414 72.5998 169.093 72.6132ZM172.304 60.1702C171.863 60.1702 171.468 60.0297 171.12 59.7488C170.786 59.4678 170.618 59.0865 170.618 58.6048C170.618 58.1098 170.786 57.7217 171.12 57.4408C171.468 57.1598 171.863 57.0193 172.304 57.0193C172.746 57.0193 173.134 57.1598 173.468 57.4408C173.816 57.7217 173.99 58.1031 173.99 58.5847C173.99 59.0798 173.816 59.4678 173.468 59.7488C173.134 60.0297 172.746 60.1702 172.304 60.1702ZM182.282 72.8942C181.279 72.8942 180.389 72.7002 179.613 72.3122C178.837 71.9108 178.228 71.3087 177.787 70.5059C177.345 69.6898 177.124 68.6662 177.124 67.4353C177.124 66.2044 177.345 65.1809 177.787 64.3647C178.228 63.5486 178.837 62.9465 179.613 62.5585C180.389 62.1571 181.279 61.9564 182.282 61.9564C183.299 61.9564 184.189 62.1571 184.951 62.5585C185.714 62.9465 186.316 63.5486 186.758 64.3647C187.199 65.1809 187.42 66.2044 187.42 67.4353C187.42 68.6662 187.199 69.6898 186.758 70.5059C186.316 71.3087 185.714 71.9108 184.951 72.3122C184.189 72.7002 183.299 72.8942 182.282 72.8942ZM182.282 72.1115C182.924 72.1115 183.453 71.7435 183.868 71.0077C184.296 70.2584 184.51 69.0676 184.51 67.4353C184.51 65.7763 184.296 64.5788 183.868 63.8429C183.453 63.0936 182.924 62.719 182.282 62.719C181.627 62.719 181.091 63.0936 180.677 63.8429C180.262 64.5788 180.055 65.7763 180.055 67.4353C180.055 69.0676 180.262 70.2584 180.677 71.0077C181.091 71.7435 181.627 72.1115 182.282 72.1115Z" fill="#212121"/>
</svg>
